{
    "asset" : {
        "generator" : "Khronos glTF Blender I/O v1.1.46",
        "version" : "2.0"
    },
    "scene" : 0,
    "scenes" : [
        {
            "name" : "Scene",
            "nodes" : [
                0
            ]
        }
    ],
    "nodes" : [
        {
            "mesh" : 0,
            "name" : "Cube",
            "scale" : [
                0.9833332896232605,
                3.2808332443237305,
                1.6404166221618652
            ],
            "translation" : [
                0,
                1.0023796558380127,
                0
            ]
        }
    ],
    "materials" : [
        {
            "doubleSided" : true,
            "emissiveFactor" : [
                0,
                0,
                0
            ],
            "name" : "Material.001",
            "pbrMetallicRoughness" : {
                "baseColorFactor" : [
                    0.15970031917095184,
                    0.16800853610038757,
                    0.17095158994197845,
                    1
                ],
                "metallicFactor" : 0,
                "roughnessFactor" : 0.5
            }
        }
    ],
    "meshes" : [
        {
            "name" : "Cube.001",
            "primitives" : [
                {
                    "attributes" : {
                        "POSITION" : 0,
                        "NORMAL" : 1,
                        "TEXCOORD_0" : 2
                    },
                    "indices" : 3,
                    "material" : 0
                }
            ]
        }
    ],
    "accessors" : [
        {
            "bufferView" : 0,
            "componentType" : 5126,
            "count" : 38,
            "max" : [
                0.30480000376701355,
                0.30480003356933594,
                0.30480000376701355
            ],
            "min" : [
                -0.30480000376701355,
                -0.30479997396469116,
                -0.30480000376701355
            ],
            "type" : "VEC3"
        },
        {
            "bufferView" : 1,
            "componentType" : 5126,
            "count" : 38,
            "type" : "VEC3"
        },
        {
            "bufferView" : 2,
            "componentType" : 5126,
            "count" : 38,
            "type" : "VEC2"
        },
        {
            "bufferView" : 3,
            "componentType" : 5123,
            "count" : 78,
            "type" : "SCALAR"
        }
    ],
    "bufferViews" : [
        {
            "buffer" : 0,
            "byteLength" : 456,
            "byteOffset" : 0
        },
        {
            "buffer" : 0,
            "byteLength" : 456,
            "byteOffset" : 456
        },
        {
            "buffer" : 0,
            "byteLength" : 304,
            "byteOffset" : 912
        },
        {
            "buffer" : 0,
            "byteLength" : 156,
            "byteOffset" : 1216
        }
    ],
    "buffers" : [
        {
            "byteLength" : 1372,
            "uri" : "data:application/octet-stream;base64,"
        }
    ]
}
